<?xml version="1.0" encoding="UTF-8" standalone="no"?><!DOCTYPE svg PUBLIC "-//W3C//DTD SVG 1.1//EN" "http://www.w3.org/Graphics/SVG/1.1/DTD/svg11.dtd"><svg width="100%" height="100%" viewBox="0 0 512 512" version="1.1" xmlns="http://www.w3.org/2000/svg" xmlns:xlink="http://www.w3.org/1999/xlink" xml:space="preserve" xmlns:serif="http://www.serif.com/" style="fill-rule:evenodd;clip-rule:evenodd;stroke-linejoin:round;stroke-miterlimit:1.41421;"><path d="M490.667,149.334c-12.8,0 -25.6,-2.133 -32,10.667c-17.067,29.866 -57.6,40.533 -87.467,23.466c-10.667,-6.4 -17.067,-12.8 -23.467,-23.467c-8.533,-14.933 -32,-14.933 -40.533,0c-17.067,29.867 -57.6,40.533 -87.467,23.467c-10.667,-6.4 -17.067,-12.8 -23.467,-23.467c-6.4,-14.933 -27.733,-12.8 -36.267,0c-17.067,29.867 -57.6,40.533 -87.467,23.467c-17.067,-8.533 -23.467,-32 -40.533,-34.133c-14.932,-2.134 -31.999,4.266 -31.999,21.333l0,234.667c0,12.8 8.533,21.333 21.333,21.333l469.333,0c12.8,0 21.333,-8.533 21.333,-21.333l0,-234.667c0.001,-12.8 -8.532,-21.333 -21.332,-21.333Z" style="fill:#ccf2fe;fill-rule:nonzero;"/><path d="M490.667,298.667l-12.8,0c-8.533,0 -14.933,4.267 -19.2,10.667c-17.067,29.867 -57.6,40.533 -87.467,23.467c-10.667,-6.4 -17.067,-12.8 -23.467,-23.467c-8.533,-14.933 -32,-14.933 -40.533,0c-17.067,29.867 -57.6,40.533 -87.467,23.467c-14.933,-8.534 -23.466,-34.134 -42.666,-34.134c6.4,0 -4.267,0 -6.4,2.133c-4.267,2.133 -8.533,4.267 -10.667,8.533c-17.067,29.867 -57.6,40.533 -87.467,23.467c-17.067,-8.533 -23.467,-32 -42.667,-34.133c-14.933,-2.133 -29.866,4.267 -29.866,21.333l0,170.667c0,12.8 8.533,21.333 21.333,21.333l469.333,0c12.8,0 21.333,-8.533 21.333,-21.333l0,-170.667c0.001,-12.8 -8.532,-21.333 -21.332,-21.333Z" style="fill:url(#_Linear1);fill-rule:nonzero;"/><g><circle cx="256" cy="85.334" r="21.333" style="fill:#67d9fb;"/><circle cx="405.333" cy="128" r="21.333" style="fill:#67d9fb;"/><circle cx="384" cy="42.667" r="21.333" style="fill:#67d9fb;"/></g><defs><linearGradient id="_Linear1" x1="0" y1="0" x2="1" y2="0" gradientUnits="userSpaceOnUse" gradientTransform="matrix(350.165,-350.165,350.165,350.165,80.994,580.512)"><stop offset="0" style="stop-color:#34cdfa;stop-opacity:1"/><stop offset="1" style="stop-color:#e8d9f1;stop-opacity:1"/></linearGradient></defs></svg>